<?xml version="1.0" encoding="utf-8"?><svg viewBox="0 0 24 24" xmlns="http://www.w3.org/2000/svg" xmlns:xlink="http://www.w3.org/1999/xlink"><style>:root>svg{display:none}:root>svg:target{display:block}</style><svg fill="none" viewBox="0 0 9 6" id="arrow-down" xmlns="http://www.w3.org/2000/svg"><path d="M4.488 5.077c.062 0 .12-.011.176-.034a.458.458 0 0 0 .151-.107l3.78-3.873a.454.454 0 0 0 .073-.542.426.426 0 0 0-.161-.16.428.428 0 0 0-.225-.06.452.452 0 0 0-.317.128l-3.74 3.823h.522L1.007.429A.441.441 0 0 0 .689.302.454.454 0 0 0 .46.36a.454.454 0 0 0-.215.39c0 .063.012.121.034.177a.46.46 0 0 0 .098.141l3.78 3.868a.465.465 0 0 0 .331.141Z" fill="#29282D"/></svg><svg fill="none" viewBox="0 0 9 6" id="arrow-down-white" xmlns="http://www.w3.org/2000/svg"><path d="M4.488 5.077c.062 0 .12-.011.176-.034a.458.458 0 0 0 .151-.107l3.78-3.873a.454.454 0 0 0 .073-.542.426.426 0 0 0-.161-.16.428.428 0 0 0-.225-.06.452.452 0 0 0-.317.128l-3.74 3.823h.522L1.007.429A.441.441 0 0 0 .689.302.454.454 0 0 0 .46.36a.454.454 0 0 0-.215.39c0 .063.012.121.034.177a.46.46 0 0 0 .098.141l3.78 3.868a.465.465 0 0 0 .331.141Z" fill="#fff"/></svg><svg fill="none" viewBox="0 0 24 24" id="arrow-right-slider" xmlns="http://www.w3.org/2000/svg"><path d="M17.92 11.62a1 1 0 0 0-.21-.33l-5-5a1.003 1.003 0 1 0-1.42 1.42l3.3 3.29H7a1 1 0 1 0 0 2h7.59l-3.3 3.29a1 1 0 0 0 0 1.42 1.002 1.002 0 0 0 1.42 0l5-5c.091-.095.162-.207.21-.33a1 1 0 0 0 0-.76Z" fill="#424242"/></svg><svg viewBox="0 0 24 24" id="arrow_up" xmlns="http://www.w3.org/2000/svg"><path fill="#fff" d="M13 20V7.83l3.59 3.58L18 10l-6-6-6 6 1.41 1.41L11 7.83V20z"/></svg><svg fill="none" viewBox="0 0 24 24" id="book-open" xmlns="http://www.w3.org/2000/svg"><path d="M22 3h-6a4 4 0 0 0-4 4v14a3 3 0 0 1 3-3h7V3ZM2 3h6a4 4 0 0 1 4 4v14a3 3 0 0 0-3-3H2V3Z" stroke="#6667AB" stroke-width="2" stroke-linecap="round" stroke-linejoin="round"/></svg><svg fill="none" viewBox="0 0 24 24" id="car-icon" xmlns="http://www.w3.org/2000/svg"><path fill-rule="evenodd" clip-rule="evenodd" d="M13.114 3.05H8.44a3 3 0 0 0-2.84 2L4.24 9.11A3 3 0 0 0 2 12v4a3 3 0 0 0 2 2.82V20a1 1 0 1 0 2 0v-1h12v1a1 1 0 0 0 2 0v-1.18A3 3 0 0 0 22 16v-4a3 3 0 0 0-2.24-2.89v-.03l-.582-1.724a3.977 3.977 0 0 1-1.887.634L17.61 9H6.39l1.1-3.32A1 1 0 0 1 8.44 5h4.686a4.01 4.01 0 0 1-.012-1.95ZM6.29 13.29a.901.901 0 0 1 .33-.21 1 1 0 0 1 1.09.21c.183.192.286.445.29.71a.84.84 0 0 1-.08.38 1.15 1.15 0 0 1-.21.33c-.097.088-.209.16-.33.21a1 1 0 0 1-1.3-1.3.901.901 0 0 1 .21-.33Zm13.417 3.417A1 1 0 0 0 20 16v-4a1 1 0 0 0-1-1H5a1 1 0 0 0-1 1v4a1 1 0 0 0 1 1h14a1 1 0 0 0 .707-.293ZM16.29 13.29a.901.901 0 0 1 .33-.21 1 1 0 0 1 1.09.21c.183.192.286.445.29.71a.84.84 0 0 1-.08.38.901.901 0 0 1-.54.54 1 1 0 0 1-1.3-1.3.902.902 0 0 1 .21-.33ZM11 13h2a1 1 0 0 1 0 2h-2a1 1 0 1 1 0-2Z" fill="#6667AB"/><path d="M18.5 2h-2a.5.5 0 0 0 0 1h1a1.5 1.5 0 0 1 0 3v.5a.5.5 0 0 1-1 0V6h-1a.5.5 0 0 1 0-1h2a.5.5 0 0 0 0-1h-1a1.5 1.5 0 0 1 0-3V.5a.5.5 0 0 1 1 0V1h1a.5.5 0 0 1 0 1Z" fill="#6667AB"/></svg><svg fill="none" viewBox="0 0 24 24" id="car-sideview" xmlns="http://www.w3.org/2000/svg"><path d="M19 9.5h-.32l-1.25-3.12a3 3 0 0 0-2.78-1.88h-6A3 3 0 0 0 5.7 6.91L5.18 9.5H5a3 3 0 0 0-3 3v3a1 1 0 0 0 1 1h1a3 3 0 1 0 6 0h4a3 3 0 0 0 6 0h1a1 1 0 0 0 1-1v-3a3 3 0 0 0-3-3Zm-6-3h1.65a1 1 0 0 1 .92.63l.95 2.37H13v-3Zm-5.34.8a1 1 0 0 1 1-.8H11v3H7.22l.44-2.2ZM7 17.5a1 1 0 1 1 0-2 1 1 0 0 1 0 2Zm10 0a1 1 0 1 1 0-2 1 1 0 0 1 0 2Zm3-3h-.78a3.002 3.002 0 0 0-4.44 0H9.22a3.002 3.002 0 0 0-4.44 0H4v-2a1 1 0 0 1 1-1h14a1 1 0 0 1 1 1v2Z" fill="#6667AB"/></svg><svg fill="none" viewBox="0 0 24 24" id="car-usd" xmlns="http://www.w3.org/2000/svg"><path fill-rule="evenodd" clip-rule="evenodd" d="M13.114 3.05H8.44a3 3 0 0 0-2.84 2L4.24 9.11A3 3 0 0 0 2 12v4a3 3 0 0 0 2 2.82V20a1 1 0 1 0 2 0v-1h12v1a1 1 0 0 0 2 0v-1.18A3 3 0 0 0 22 16v-4a3 3 0 0 0-2.24-2.89v-.03l-.582-1.724a3.977 3.977 0 0 1-1.887.634L17.61 9H6.39l1.1-3.32A1 1 0 0 1 8.44 5h4.686a4.01 4.01 0 0 1-.012-1.95ZM6.29 13.29a.901.901 0 0 1 .33-.21 1 1 0 0 1 1.09.21c.183.192.286.445.29.71a.84.84 0 0 1-.08.38 1.15 1.15 0 0 1-.21.33c-.097.088-.209.16-.33.21a1 1 0 0 1-1.3-1.3.901.901 0 0 1 .21-.33Zm13.417 3.417A1 1 0 0 0 20 16v-4a1 1 0 0 0-1-1H5a1 1 0 0 0-1 1v4a1 1 0 0 0 1 1h14a1 1 0 0 0 .707-.293ZM16.29 13.29a.901.901 0 0 1 .33-.21 1 1 0 0 1 1.09.21c.183.192.286.445.29.71a.84.84 0 0 1-.08.38.901.901 0 0 1-.54.54 1 1 0 0 1-1.3-1.3.902.902 0 0 1 .21-.33ZM11 13h2a1 1 0 0 1 0 2h-2a1 1 0 1 1 0-2Z" fill="#6667AB"/><path d="M18.5 2h-2a.5.5 0 0 0 0 1h1a1.5 1.5 0 0 1 0 3v.5a.5.5 0 0 1-1 0V6h-1a.5.5 0 0 1 0-1h2a.5.5 0 0 0 0-1h-1a1.5 1.5 0 0 1 0-3V.5a.5.5 0 0 1 1 0V1h1a.5.5 0 0 1 0 1Z" fill="#6667AB"/></svg><svg fill="none" viewBox="0 0 24 24" id="facebook" xmlns="http://www.w3.org/2000/svg"><path fill-rule="evenodd" clip-rule="evenodd" d="M0 3.75A3.75 3.75 0 0 1 3.75 0h16.5A3.75 3.75 0 0 1 24 3.75v16.5A3.75 3.75 0 0 1 20.25 24H3.75A3.75 3.75 0 0 1 0 20.25V3.75ZM12 6c3.3 0 6 2.7 6 6 0 3-2.175 5.55-5.175 6v-4.275h1.425l.3-1.725H12.9v-1.125c0-.45.225-.9.975-.9h.75v-1.5s-.675-.15-1.35-.15c-1.35 0-2.25.825-2.25 2.325V12h-1.5v1.725h1.5v4.2C8.175 17.475 6 15 6 12c0-3.3 2.7-6 6-6Z" fill="#6667AB"/></svg><svg fill="none" viewBox="0 0 24 24" id="instagram" xmlns="http://www.w3.org/2000/svg"><path d="M12 14.1c-1.125 0-2.1-.9-2.1-2.1 0-1.125.9-2.1 2.1-2.1 1.125 0 2.1.9 2.1 2.1 0 1.125-.975 2.1-2.1 2.1Z" fill="#6667AB"/><path fill-rule="evenodd" clip-rule="evenodd" d="M14.55 6.9h-5.1c-.6.075-.9.15-1.125.225-.3.075-.525.225-.75.45-.178.178-.262.356-.364.571a8.718 8.718 0 0 1-.086.179l-.04.11c-.078.215-.185.508-.185 1.015v5.1c.075.6.15.9.225 1.125.075.3.225.525.45.75.178.178.356.262.571.364l.179.086.11.04c.215.078.508.185 1.015.185h5.1c.6-.075.9-.15 1.125-.225.3-.075.525-.225.75-.45.178-.178.262-.356.364-.571l.086-.179.04-.11c.078-.215.185-.508.185-1.015v-5.1c-.075-.6-.15-.9-.225-1.125-.075-.3-.225-.525-.45-.75-.178-.178-.356-.262-.571-.364a8.645 8.645 0 0 1-.179-.086 4.08 4.08 0 0 1-.11-.04c-.215-.078-.508-.185-1.015-.185ZM12 8.775A3.201 3.201 0 0 0 8.775 12c0 1.8 1.425 3.225 3.225 3.225S15.225 13.8 15.225 12 13.8 8.775 12 8.775Zm4.05-.075a.75.75 0 1 1-1.5 0 .75.75 0 0 1 1.5 0Z" fill="#6667AB"/><path fill-rule="evenodd" clip-rule="evenodd" d="M0 3.75A3.75 3.75 0 0 1 3.75 0h16.5A3.75 3.75 0 0 1 24 3.75v16.5A3.75 3.75 0 0 1 20.25 24H3.75A3.75 3.75 0 0 1 0 20.25V3.75Zm9.45 2.025h5.1c.675.075 1.125.15 1.5.3.45.225.75.375 1.125.75s.6.75.75 1.125c.15.375.3.825.3 1.5v5.1c-.075.675-.15 1.125-.3 1.5-.225.45-.375.75-.75 1.125s-.75.6-1.125.75c-.375.15-.825.3-1.5.3h-5.1c-.675-.075-1.125-.15-1.5-.3-.45-.225-.75-.375-1.125-.75s-.6-.75-.75-1.125c-.15-.375-.3-.825-.3-1.5v-5.1c.075-.675.15-1.125.3-1.5.225-.45.375-.75.75-1.125s.75-.6 1.125-.75c.375-.15.825-.3 1.5-.3Z" fill="#6667AB"/></svg><svg fill="none" viewBox="0 0 20 20" id="location-point" xmlns="http://www.w3.org/2000/svg"><path d="M15 3.733a7.071 7.071 0 1 0-10 10l4.392 4.4a.833.833 0 0 0 1.183 0L15 13.692a7.041 7.041 0 0 0 0-9.959ZM13.808 12.5 10 16.325 6.192 12.5a5.383 5.383 0 1 1 7.616 0ZM7.5 6.175a3.6 3.6 0 0 0 0 5.083 3.592 3.592 0 0 0 6.133-2.5 3.535 3.535 0 0 0-1.05-2.541A3.583 3.583 0 0 0 7.5 6.175Zm3.908 3.9a1.942 1.942 0 1 1 .559-1.358 1.941 1.941 0 0 1-.6 1.358h.041Z" fill="#EBC277"/></svg><svg fill="none" viewBox="0 0 24 24" id="money-stack" xmlns="http://www.w3.org/2000/svg"><path d="M22 17H2a1 1 0 0 0 0 2h20a1 1 0 0 0 0-2Zm0 4H2a1 1 0 0 0 0 2h20a1 1 0 0 0 0-2ZM6 7a1 1 0 1 0 0 2 1 1 0 0 0 0-2Zm14-6H4a3 3 0 0 0-3 3v8a3 3 0 0 0 3 3h16a3 3 0 0 0 3-3V4a3 3 0 0 0-3-3Zm1 11a1 1 0 0 1-1 1H4a1 1 0 0 1-1-1V4a1 1 0 0 1 1-1h16a1 1 0 0 1 1 1v8Zm-9-7a3 3 0 1 0 0 6 3 3 0 0 0 0-6Zm0 4a1 1 0 1 1 0-2 1 1 0 0 1 0 2Zm6-2a1 1 0 1 0 0 2 1 1 0 0 0 0-2Z" fill="#6667AB"/></svg><svg fill="none" viewBox="0 0 17 17" id="phone" xmlns="http://www.w3.org/2000/svg"><path d="M8.367 16.328a7.616 7.616 0 0 0 3.07-.625 8.134 8.134 0 0 0 2.547-1.726 8.158 8.158 0 0 0 1.727-2.54 7.67 7.67 0 0 0 .625-3.078 7.616 7.616 0 0 0-.625-3.07 8.131 8.131 0 0 0-1.727-2.547 8.134 8.134 0 0 0-2.546-1.726A7.672 7.672 0 0 0 8.358.39a7.672 7.672 0 0 0-3.078.625 8.159 8.159 0 0 0-2.539 1.726A8.199 8.199 0 0 0 1.023 5.29a7.616 7.616 0 0 0-.625 3.07c0 1.089.209 2.115.625 3.079a8.16 8.16 0 0 0 1.727 2.539 8.159 8.159 0 0 0 2.54 1.726c.963.417 1.989.625 3.077.625Zm0-1.328a6.495 6.495 0 0 1-2.586-.516 6.76 6.76 0 0 1-2.117-1.421 6.76 6.76 0 0 1-1.422-2.118 6.581 6.581 0 0 1-.508-2.586c0-.921.17-1.783.508-2.586a6.76 6.76 0 0 1 1.422-2.117 6.498 6.498 0 0 1 2.11-1.422 6.494 6.494 0 0 1 2.585-.515c.922 0 1.784.172 2.586.515a6.476 6.476 0 0 1 2.117 1.422 6.695 6.695 0 0 1 1.43 2.117c.344.803.516 1.665.516 2.586 0 .922-.172 1.784-.516 2.586a6.588 6.588 0 0 1-1.422 2.117 6.76 6.76 0 0 1-2.117 1.422A6.495 6.495 0 0 1 8.367 15Zm-1.914-4.813a11.5 11.5 0 0 0 1.438 1.211c.5.35.997.615 1.492.797.495.177.963.242 1.406.196.448-.053.844-.25 1.188-.594l.07-.07.062-.079a1.14 1.14 0 0 0 .297-.656c.026-.24-.075-.445-.304-.617-.12-.088-.245-.18-.375-.273-.13-.094-.28-.196-.446-.305a418.98 418.98 0 0 0-.562-.399c-.23-.161-.427-.226-.594-.195-.167.026-.339.125-.516.297l-.304.313a.25.25 0 0 1-.172.062.404.404 0 0 1-.18-.055 4.42 4.42 0 0 1-.523-.375 7.382 7.382 0 0 1-.649-.593 9.342 9.342 0 0 1-.586-.641 4.081 4.081 0 0 1-.375-.524.507.507 0 0 1-.054-.164c-.01-.062.01-.12.062-.171l.313-.32c.177-.188.278-.363.304-.524.026-.162-.044-.357-.21-.586l-.962-1.367a.649.649 0 0 0-.367-.282.72.72 0 0 0-.453.024c-.161.057-.33.15-.508.281a.155.155 0 0 0-.054.047.31.31 0 0 1-.047.04c-.344.348-.542.744-.594 1.187-.047.442.018.911.195 1.406.183.495.448.992.797 1.492.354.5.758.98 1.211 1.438Z" fill="#29282D"/></svg><svg fill="none" viewBox="0 0 17 17" id="profile" xmlns="http://www.w3.org/2000/svg"><path d="M8.367 16.328a7.616 7.616 0 0 0 3.07-.625 8.134 8.134 0 0 0 2.547-1.726 8.158 8.158 0 0 0 1.727-2.54 7.67 7.67 0 0 0 .625-3.078 7.616 7.616 0 0 0-.625-3.07 8.131 8.131 0 0 0-1.727-2.547 8.134 8.134 0 0 0-2.546-1.726A7.672 7.672 0 0 0 8.358.39a7.672 7.672 0 0 0-3.078.625 8.159 8.159 0 0 0-2.539 1.726A8.199 8.199 0 0 0 1.023 5.29a7.616 7.616 0 0 0-.625 3.07c0 1.089.209 2.115.625 3.079a8.16 8.16 0 0 0 1.727 2.539 8.159 8.159 0 0 0 2.54 1.726c.963.417 1.989.625 3.077.625Zm0-1.328a6.495 6.495 0 0 1-2.586-.516 6.76 6.76 0 0 1-2.117-1.421 6.76 6.76 0 0 1-1.422-2.118 6.581 6.581 0 0 1-.508-2.586c0-.921.17-1.783.508-2.586a6.76 6.76 0 0 1 1.422-2.117 6.498 6.498 0 0 1 2.11-1.422 6.494 6.494 0 0 1 2.585-.515c.922 0 1.784.172 2.586.515a6.476 6.476 0 0 1 2.117 1.422 6.695 6.695 0 0 1 1.43 2.117c.344.803.516 1.665.516 2.586 0 .922-.172 1.784-.516 2.586a6.588 6.588 0 0 1-1.422 2.117 6.76 6.76 0 0 1-2.117 1.422A6.495 6.495 0 0 1 8.367 15ZM4.79 12.312h7.14c.157 0 .271-.044.344-.132a.542.542 0 0 0 .118-.36c0-.213-.084-.49-.25-.828a3.758 3.758 0 0 0-.743-1.023 4.072 4.072 0 0 0-1.25-.867c-.505-.235-1.101-.352-1.789-.352-.687 0-1.283.117-1.789.352a4.176 4.176 0 0 0-1.258.867c-.328.338-.575.68-.742 1.023-.161.339-.242.615-.242.828 0 .146.037.266.11.36.078.088.195.133.351.133ZM8.36 8.11c.37.006.706-.088 1.008-.28.307-.194.55-.454.727-.782.182-.333.273-.708.273-1.125 0-.39-.091-.748-.273-1.07a2.058 2.058 0 0 0-.727-.782 1.8 1.8 0 0 0-1.008-.297c-.37 0-.708.1-1.015.297a2.142 2.142 0 0 0-.727.782c-.177.322-.265.68-.265 1.07 0 .417.088.789.265 1.117.182.328.425.589.727.781.307.193.646.29 1.015.29Z" fill="#29282D"/></svg><svg fill="none" viewBox="0 0 20 20" id="pump" xmlns="http://www.w3.org/2000/svg"><path d="m17.117 5.242-1.284-1.284-1.175-1.175a.837.837 0 1 0-1.183 1.183l.833.834-.691 2.075a2.5 2.5 0 0 0 .608 2.558l2.458 2.5v3.9a.833.833 0 0 1-1.666 0v-1.667a2.5 2.5 0 0 0-2.5-2.5h-.85v-7.5a2.5 2.5 0 0 0-2.5-2.5h-5a2.5 2.5 0 0 0-2.5 2.5v11.667a2.5 2.5 0 0 0 2.5 2.5h5a2.5 2.5 0 0 0 2.5-2.5v-2.5h.833a.833.833 0 0 1 .833.833v1.667a2.5 2.5 0 0 0 5 0V8.191a4.167 4.167 0 0 0-1.216-2.95ZM10 15.832a.833.833 0 0 1-.833.833h-5a.833.833 0 0 1-.834-.833V10H10v5.833Zm0-7.5H3.333V4.166a.833.833 0 0 1 .834-.833h5a.833.833 0 0 1 .833.833v4.167Zm6.667 1.184-1.284-1.284a.833.833 0 0 1-.2-.833l.425-1.284.325.334a2.5 2.5 0 0 1 .734 1.741v1.325Z" fill="#EBC277"/></svg><svg fill="none" viewBox="0 0 18 18" id="star" xmlns="http://www.w3.org/2000/svg"><path d="M3.922 16.953a.643.643 0 0 0 .547.125c.203-.036.424-.14.664-.312l4.133-3.04 4.14 3.04c.24.172.461.276.664.312.203.042.386 0 .547-.125a.715.715 0 0 0 .29-.484c.036-.203.005-.446-.095-.727l-1.632-4.86 4.172-3c.244-.171.414-.348.507-.53a.707.707 0 0 0 .047-.563.714.714 0 0 0-.367-.422c-.182-.094-.424-.138-.727-.133l-5.117.032-1.554-4.883c-.094-.287-.214-.503-.36-.649a.689.689 0 0 0-.515-.218.705.705 0 0 0-.516.218c-.14.146-.258.362-.352.649L6.844 6.266l-5.117-.032c-.303-.005-.545.04-.727.133a.715.715 0 0 0-.367.422.708.708 0 0 0 .047.563c.093.182.263.359.507.53l4.172 3-1.632 4.86c-.1.281-.133.524-.102.727a.745.745 0 0 0 .297.484Zm1.125-1.547c-.01-.01-.01-.034 0-.07l1.555-4.469a.694.694 0 0 0 .046-.281.438.438 0 0 0-.07-.242.705.705 0 0 0-.203-.211l-3.89-2.688c-.037-.02-.05-.041-.04-.062.006-.016.029-.024.07-.024l4.727.086a.677.677 0 0 0 .399-.093A.621.621 0 0 0 7.867 7l1.36-4.523c.01-.042.023-.063.039-.063.02 0 .036.02.046.063L10.672 7a.622.622 0 0 0 .226.352.677.677 0 0 0 .399.093l4.726-.086c.042 0 .066.008.07.024.011.02-.002.041-.038.062l-3.89 2.688a.705.705 0 0 0-.204.21.494.494 0 0 0-.078.243c0 .088.018.182.055.281l1.554 4.469c.005.036.005.06 0 .07-.01.016-.034.01-.07-.015l-3.758-2.868a.632.632 0 0 0-.398-.148.622.622 0 0 0-.391.148l-3.758 2.868c-.036.026-.06.03-.07.015Z" fill="#29282D"/></svg><svg fill="none" viewBox="0 0 20 20" id="tachometer-fast-alt" xmlns="http://www.w3.org/2000/svg"><path d="M10 4.167a8.333 8.333 0 0 0-7.217 12.5.836.836 0 1 0 1.45-.834 6.6 6.6 0 0 1-.9-3.333 6.667 6.667 0 1 1 12.442 3.333.833.833 0 1 0 1.442.833A8.333 8.333 0 0 0 10 4.166Zm2.367 4.8-1.292 1.283A2.425 2.425 0 0 0 10 10a2.5 2.5 0 1 0 2.5 2.5c0-.37-.086-.735-.25-1.067l1.292-1.283a.832.832 0 0 0-.588-1.426.833.833 0 0 0-.587.242ZM10 13.332a.833.833 0 0 1 0-1.667.833.833 0 0 1 .583.234.834.834 0 0 1 .25.6.833.833 0 0 1-.833.833Z" fill="#EBC277"/></svg><svg fill="none" viewBox="0 0 24 24" id="telegram" xmlns="http://www.w3.org/2000/svg"><path fill-rule="evenodd" clip-rule="evenodd" d="M3.75 0h16.5A3.75 3.75 0 0 1 24 3.75v16.5A3.75 3.75 0 0 1 20.25 24H3.75A3.75 3.75 0 0 1 0 20.25V3.75A3.75 3.75 0 0 1 3.75 0Zm8.769 9.006a526.069 526.069 0 0 0-6.444 2.775c-.523.208-.797.412-.822.61-.042.337.379.47.952.65l.242.077c.564.183 1.323.397 1.718.406.358.008.757-.14 1.198-.443 3.01-2.031 4.563-3.058 4.66-3.08.07-.016.165-.035.23.022.064.057.058.166.05.195-.04.178-1.694 1.715-2.55 2.51-.266.248-.455.424-.494.464-.086.09-.175.175-.26.257-.524.505-.917.884.022 1.503.451.297.813.543 1.173.789.393.267.785.535 1.293.867.13.085.253.173.373.26.458.325.87.619 1.378.572.295-.027.6-.305.755-1.133.366-1.957 1.085-6.197 1.252-7.944a1.954 1.954 0 0 0-.019-.435.465.465 0 0 0-.157-.3c-.133-.107-.337-.13-.428-.128-.416.007-1.053.23-4.122 1.506Z" fill="#6667AB"/></svg><svg fill="none" viewBox="0 0 20 20" id="transmission" xmlns="http://www.w3.org/2000/svg"><path fill-rule="evenodd" clip-rule="evenodd" d="M10 18.333a8.333 8.333 0 1 0 0-16.666 8.333 8.333 0 0 0 0 16.666Zm0-1.666a6.667 6.667 0 1 0 0-13.334 6.667 6.667 0 0 0 0 13.333Z" fill="#EBC277"/><path d="M5.833 7.5a.833.833 0 0 1 1.667 0v5a.833.833 0 1 1-1.667 0v-5ZM9.167 7.5a.833.833 0 1 1 1.666 0v5a.833.833 0 1 1-1.666 0v-5ZM12.5 7.5a.833.833 0 0 1 1.667 0v2.916a.833.833 0 0 1-1.667 0V7.5Z" fill="#EBC277"/><path d="M6.667 11.25a.833.833 0 1 1 0-1.667h6.666a.833.833 0 0 1 0 1.667H6.667Z" fill="#EBC277"/></svg><svg fill="none" viewBox="0 0 24 24" id="truck" xmlns="http://www.w3.org/2000/svg"><path d="M18.5 21a2.5 2.5 0 1 0 0-5 2.5 2.5 0 0 0 0 5ZM5.5 21a2.5 2.5 0 1 0 0-5 2.5 2.5 0 0 0 0 5ZM16 8h4l3 3v5h-7V8ZM16 3H1v13h15V3Z" stroke="#6667AB" stroke-width="2" stroke-linecap="round" stroke-linejoin="round"/></svg><svg fill="none" viewBox="0 0 24 24" id="user-check" xmlns="http://www.w3.org/2000/svg"><path d="M16 21v-2a4 4 0 0 0-4-4H5a4 4 0 0 0-4 4v2M17 11l2 2 4-4M8.5 11a4 4 0 1 0 0-8 4 4 0 0 0 0 8Z" stroke="#6667AB" stroke-width="2" stroke-linecap="round" stroke-linejoin="round"/></svg></svg>