<?xml version="1.0" encoding="utf-8"?><svg viewBox="0 0 39 100" xmlns="http://www.w3.org/2000/svg" xmlns:xlink="http://www.w3.org/1999/xlink"><style>:root>svg{display:none}:root>svg:target{display:block}</style><svg fill="none" viewBox="0 0 9 6" id="arrow-down" xmlns="http://www.w3.org/2000/svg"><path d="M4.488 5.077c.062 0 .12-.011.176-.034a.458.458 0 0 0 .151-.107l3.78-3.873a.454.454 0 0 0 .073-.542.426.426 0 0 0-.161-.16.428.428 0 0 0-.225-.06.452.452 0 0 0-.317.128l-3.74 3.823h.522L1.007.429A.441.441 0 0 0 .689.302.454.454 0 0 0 .46.36a.454.454 0 0 0-.215.39c0 .063.012.121.034.177a.46.46 0 0 0 .098.141l3.78 3.868a.465.465 0 0 0 .331.141Z" fill="#29282D"/></svg><svg fill="none" viewBox="0 0 9 6" id="arrow-down-white" xmlns="http://www.w3.org/2000/svg"><path d="M4.488 5.077c.062 0 .12-.011.176-.034a.458.458 0 0 0 .151-.107l3.78-3.873a.454.454 0 0 0 .073-.542.426.426 0 0 0-.161-.16.428.428 0 0 0-.225-.06.452.452 0 0 0-.317.128l-3.74 3.823h.522L1.007.429A.441.441 0 0 0 .689.302.454.454 0 0 0 .46.36a.454.454 0 0 0-.215.39c0 .063.012.121.034.177a.46.46 0 0 0 .098.141l3.78 3.868a.465.465 0 0 0 .331.141Z" fill="#fff"/></svg><svg fill="none" viewBox="0 0 15 26" id="arrow-main" xmlns="http://www.w3.org/2000/svg"><path d="M.698.73A2.501 2.501 0 0 0 0 2.468c0 .652.251 1.277.698 1.74l8.5 8.854-8.5 8.73A2.5 2.5 0 0 0 0 23.533a2.5 2.5 0 0 0 .698 1.738c.224.232.49.415.782.54a2.347 2.347 0 0 0 2.628-.54L14.29 14.813c.225-.23.403-.502.525-.803a2.525 2.525 0 0 0 0-1.897c-.122-.3-.3-.573-.525-.803L4.108.73a2.399 2.399 0 0 0-.781-.54 2.346 2.346 0 0 0-1.847 0 2.399 2.399 0 0 0-.782.54Z" fill="#6667AB"/></svg><svg fill="none" viewBox="0 0 24 24" id="arrow-right-circle" xmlns="http://www.w3.org/2000/svg"><path d="M12 22c5.523 0 10-4.477 10-10S17.523 2 12 2 2 6.477 2 12s4.477 10 10 10Z" stroke="#fff" stroke-width="2" stroke-linecap="round" stroke-linejoin="round"/><path d="m12 16 4-4-4-4M8 12h8" stroke="#fff" stroke-width="2" stroke-linecap="round" stroke-linejoin="round"/></svg><svg fill="none" viewBox="0 0 24 24" id="arrow-right-slider" xmlns="http://www.w3.org/2000/svg"><path d="M17.92 11.62a1 1 0 0 0-.21-.33l-5-5a1.003 1.003 0 1 0-1.42 1.42l3.3 3.29H7a1 1 0 1 0 0 2h7.59l-3.3 3.29a1 1 0 0 0 0 1.42 1.002 1.002 0 0 0 1.42 0l5-5c.091-.095.162-.207.21-.33a1 1 0 0 0 0-.76Z" fill="#424242"/></svg><svg viewBox="0 0 24 24" id="arrow_up" xmlns="http://www.w3.org/2000/svg"><path fill="#fff" d="M13 20V7.83l3.59 3.58L18 10l-6-6-6 6 1.41 1.41L11 7.83V20z"/></svg><svg viewBox="0 0 24 24" id="book-open" xmlns="http://www.w3.org/2000/svg"><path d="M22 3h-6a4 4 0 0 0-4 4v14a3 3 0 0 1 3-3h7V3ZM2 3h6a4 4 0 0 1 4 4v14a3 3 0 0 0-3-3H2V3Z" stroke-width="2" stroke-linecap="round" stroke-linejoin="round"/></svg><svg fill="none" viewBox="0 0 24 24" id="car-icon" xmlns="http://www.w3.org/2000/svg"><path fill-rule="evenodd" clip-rule="evenodd" d="M13.114 3.05H8.44a3 3 0 0 0-2.84 2L4.24 9.11A3 3 0 0 0 2 12v4a3 3 0 0 0 2 2.82V20a1 1 0 1 0 2 0v-1h12v1a1 1 0 0 0 2 0v-1.18A3 3 0 0 0 22 16v-4a3 3 0 0 0-2.24-2.89v-.03l-.582-1.724a3.977 3.977 0 0 1-1.887.634L17.61 9H6.39l1.1-3.32A1 1 0 0 1 8.44 5h4.686a4.01 4.01 0 0 1-.012-1.95ZM6.29 13.29a.901.901 0 0 1 .33-.21 1 1 0 0 1 1.09.21c.183.192.286.445.29.71a.84.84 0 0 1-.08.38 1.15 1.15 0 0 1-.21.33c-.097.088-.209.16-.33.21a1 1 0 0 1-1.3-1.3.901.901 0 0 1 .21-.33Zm13.417 3.417A1 1 0 0 0 20 16v-4a1 1 0 0 0-1-1H5a1 1 0 0 0-1 1v4a1 1 0 0 0 1 1h14a1 1 0 0 0 .707-.293ZM16.29 13.29a.901.901 0 0 1 .33-.21 1 1 0 0 1 1.09.21c.183.192.286.445.29.71a.84.84 0 0 1-.08.38.901.901 0 0 1-.54.54 1 1 0 0 1-1.3-1.3.902.902 0 0 1 .21-.33ZM11 13h2a1 1 0 0 1 0 2h-2a1 1 0 1 1 0-2Z" fill="#6667AB"/><path d="M18.5 2h-2a.5.5 0 0 0 0 1h1a1.5 1.5 0 0 1 0 3v.5a.5.5 0 0 1-1 0V6h-1a.5.5 0 0 1 0-1h2a.5.5 0 0 0 0-1h-1a1.5 1.5 0 0 1 0-3V.5a.5.5 0 0 1 1 0V1h1a.5.5 0 0 1 0 1Z" fill="#6667AB"/></svg><svg fill="none" viewBox="0 0 26 22" id="car-service" xmlns="http://www.w3.org/2000/svg"><path d="m24.642 12.857-5.363-.894-1.554-2.331a2.163 2.163 0 0 0-1.803-.965h-8.01c-.726 0-1.4.36-1.803.965L4.54 11.984l-3.31.827C.507 12.992 0 13.641 0 14.388v2.721c0 .639.249 1.239.7 1.69.446.446 1.062.701 1.691.701h1.4c.02 0 .036-.009.054-.01A2.712 2.712 0 0 0 6.5 21.666a2.712 2.712 0 0 0 2.655-2.178c.018.002.034.011.053.011h7.042c.02 0 .035-.009.054-.01a2.712 2.712 0 0 0 2.654 2.177 2.712 2.712 0 0 0 2.655-2.178c.019.002.035.011.054.011h2.374c.412 0 .784-.229.969-.599l.876-1.753a.541.541 0 0 0 .043-.12l.057-.241a.534.534 0 0 0 .014-.123v-2.205a1.62 1.62 0 0 0-1.358-1.602ZM6.5 20.583a1.627 1.627 0 0 1-1.625-1.625c0-.896.729-1.625 1.625-1.625s1.625.73 1.625 1.625c0 .897-.729 1.625-1.625 1.625Zm10.478-6.5H7.042a.54.54 0 0 1-.477-.797l1.16-2.166a.54.54 0 0 1 .476-.287h7.431a.54.54 0 0 1 .46.256l1.346 2.167a.54.54 0 0 1-.46.827Zm1.98 6.5a1.627 1.627 0 0 1-1.625-1.625c0-.896.73-1.625 1.625-1.625.897 0 1.625.73 1.625 1.625 0 .897-.728 1.625-1.625 1.625ZM5.658 4.242l1.625 1.084c.09.059.194.09.3.09h4.713a3.782 3.782 0 0 0 3.413 2.167 3.792 3.792 0 0 0 0-7.583c-1.51 0-2.803.89-3.413 2.167H7.584a.542.542 0 0 0-.3.09L5.657 3.342a.543.543 0 0 0 0 .901Zm11.134-1.534a1.084 1.084 0 0 1 0 2.167 1.084 1.084 0 0 1 0-2.167Z" fill="#6667AB"/></svg><svg fill="none" viewBox="0 0 24 24" id="car-sideview" xmlns="http://www.w3.org/2000/svg"><path d="M19 9.5h-.32l-1.25-3.12a3 3 0 0 0-2.78-1.88h-6A3 3 0 0 0 5.7 6.91L5.18 9.5H5a3 3 0 0 0-3 3v3a1 1 0 0 0 1 1h1a3 3 0 1 0 6 0h4a3 3 0 0 0 6 0h1a1 1 0 0 0 1-1v-3a3 3 0 0 0-3-3Zm-6-3h1.65a1 1 0 0 1 .92.63l.95 2.37H13v-3Zm-5.34.8a1 1 0 0 1 1-.8H11v3H7.22l.44-2.2ZM7 17.5a1 1 0 1 1 0-2 1 1 0 0 1 0 2Zm10 0a1 1 0 1 1 0-2 1 1 0 0 1 0 2Zm3-3h-.78a3.002 3.002 0 0 0-4.44 0H9.22a3.002 3.002 0 0 0-4.44 0H4v-2a1 1 0 0 1 1-1h14a1 1 0 0 1 1 1v2Z" fill="#6667AB"/></svg><svg viewBox="0 0 24 24" id="car-usd" xmlns="http://www.w3.org/2000/svg"><path fill-rule="evenodd" clip-rule="evenodd" d="M13.114 3.05H8.44a3 3 0 0 0-2.84 2L4.24 9.11A3 3 0 0 0 2 12v4a3 3 0 0 0 2 2.82V20a1 1 0 1 0 2 0v-1h12v1a1 1 0 0 0 2 0v-1.18A3 3 0 0 0 22 16v-4a3 3 0 0 0-2.24-2.89v-.03l-.582-1.724a3.977 3.977 0 0 1-1.887.634L17.61 9H6.39l1.1-3.32A1 1 0 0 1 8.44 5h4.686a4.01 4.01 0 0 1-.012-1.95ZM6.29 13.29a.901.901 0 0 1 .33-.21 1 1 0 0 1 1.09.21c.183.192.286.445.29.71a.84.84 0 0 1-.08.38 1.15 1.15 0 0 1-.21.33c-.097.088-.209.16-.33.21a1 1 0 0 1-1.3-1.3.901.901 0 0 1 .21-.33Zm13.417 3.417A1 1 0 0 0 20 16v-4a1 1 0 0 0-1-1H5a1 1 0 0 0-1 1v4a1 1 0 0 0 1 1h14a1 1 0 0 0 .707-.293ZM16.29 13.29a.901.901 0 0 1 .33-.21 1 1 0 0 1 1.09.21c.183.192.286.445.29.71a.84.84 0 0 1-.08.38.901.901 0 0 1-.54.54 1 1 0 0 1-1.3-1.3.902.902 0 0 1 .21-.33ZM11 13h2a1 1 0 0 1 0 2h-2a1 1 0 1 1 0-2Z"/><path d="M18.5 2h-2a.5.5 0 0 0 0 1h1a1.5 1.5 0 0 1 0 3v.5a.5.5 0 0 1-1 0V6h-1a.5.5 0 0 1 0-1h2a.5.5 0 0 0 0-1h-1a1.5 1.5 0 0 1 0-3V.5a.5.5 0 0 1 1 0V1h1a.5.5 0 0 1 0 1Z"/></svg><svg fill="none" viewBox="0 0 18 13" id="check" xmlns="http://www.w3.org/2000/svg"><path d="M1 6.5 6.333 12 17 1" stroke="#6667AB" stroke-width="2" stroke-linecap="round" stroke-linejoin="round"/></svg><svg fill="none" viewBox="0 0 9 7" id="check-gray" xmlns="http://www.w3.org/2000/svg"><path d="M1 3.5 3.333 6 8 1" stroke="#A9A9A9" stroke-width="2" stroke-linecap="round" stroke-linejoin="round"/></svg><svg fill="none" viewBox="0 0 18 13" id="check-white" xmlns="http://www.w3.org/2000/svg"><path d="M1 6.5 6.333 12 17 1" stroke="#fff" stroke-width="2" stroke-linecap="round" stroke-linejoin="round"/></svg><svg viewBox="0 0 4 100" id="dottedLine" xmlns="http://www.w3.org/2000/svg"><circle cx="2" cy="2" r="2" fill="#F15F70" fill-opacity=".2"/><circle cx="2" cy="12" r="2" fill="#F15F70" fill-opacity=".2"/><circle cx="2" cy="22" r="2" fill="#F15F70" fill-opacity=".2"/><circle cx="2" cy="32" r="2" fill="#F15F70" fill-opacity=".2"/><circle cx="2" cy="42" r="2" fill="#F15F70" fill-opacity=".2"/><circle cx="2" cy="52" r="2" fill="#F15F70" fill-opacity=".2"/><circle cx="2" cy="62" r="2" fill="#F15F70" fill-opacity=".2"/><circle cx="2" cy="72" r="2" fill="#F15F70" fill-opacity=".2"/><circle cx="2" cy="82" r="2" fill="#F15F70" fill-opacity=".2"/><circle cx="2" cy="92" r="2" fill="#F15F70" fill-opacity=".2"/></svg><svg fill="none" viewBox="0 0 24 24" id="facebook" xmlns="http://www.w3.org/2000/svg"><path fill-rule="evenodd" clip-rule="evenodd" d="M0 3.75A3.75 3.75 0 0 1 3.75 0h16.5A3.75 3.75 0 0 1 24 3.75v16.5A3.75 3.75 0 0 1 20.25 24H3.75A3.75 3.75 0 0 1 0 20.25V3.75ZM12 6c3.3 0 6 2.7 6 6 0 3-2.175 5.55-5.175 6v-4.275h1.425l.3-1.725H12.9v-1.125c0-.45.225-.9.975-.9h.75v-1.5s-.675-.15-1.35-.15c-1.35 0-2.25.825-2.25 2.325V12h-1.5v1.725h1.5v4.2C8.175 17.475 6 15 6 12c0-3.3 2.7-6 6-6Z" fill="#6667AB"/></svg><svg fill="none" viewBox="0 0 24 24" id="facebook-white" xmlns="http://www.w3.org/2000/svg"><path fill-rule="evenodd" clip-rule="evenodd" d="M0 3.75A3.75 3.75 0 0 1 3.75 0h16.5A3.75 3.75 0 0 1 24 3.75v16.5A3.75 3.75 0 0 1 20.25 24H3.75A3.75 3.75 0 0 1 0 20.25V3.75ZM12 6c3.3 0 6 2.7 6 6 0 3-2.175 5.55-5.175 6v-4.275h1.425l.3-1.725H12.9v-1.125c0-.45.225-.9.975-.9h.75v-1.5s-.675-.15-1.35-.15c-1.35 0-2.25.825-2.25 2.325V12h-1.5v1.725h1.5v4.2C8.175 17.475 6 15 6 12c0-3.3 2.7-6 6-6Z" fill="#fff"/></svg><svg fill="none" viewBox="0 0 24 24" id="instagram" xmlns="http://www.w3.org/2000/svg"><path d="M12 14.1c-1.125 0-2.1-.9-2.1-2.1 0-1.125.9-2.1 2.1-2.1 1.125 0 2.1.9 2.1 2.1 0 1.125-.975 2.1-2.1 2.1Z" fill="#6667AB"/><path fill-rule="evenodd" clip-rule="evenodd" d="M14.55 6.9h-5.1c-.6.075-.9.15-1.125.225-.3.075-.525.225-.75.45-.178.178-.262.356-.364.571a8.718 8.718 0 0 1-.086.179l-.04.11c-.078.215-.185.508-.185 1.015v5.1c.075.6.15.9.225 1.125.075.3.225.525.45.75.178.178.356.262.571.364l.179.086.11.04c.215.078.508.185 1.015.185h5.1c.6-.075.9-.15 1.125-.225.3-.075.525-.225.75-.45.178-.178.262-.356.364-.571l.086-.179.04-.11c.078-.215.185-.508.185-1.015v-5.1c-.075-.6-.15-.9-.225-1.125-.075-.3-.225-.525-.45-.75-.178-.178-.356-.262-.571-.364a8.645 8.645 0 0 1-.179-.086 4.08 4.08 0 0 1-.11-.04c-.215-.078-.508-.185-1.015-.185ZM12 8.775A3.201 3.201 0 0 0 8.775 12c0 1.8 1.425 3.225 3.225 3.225S15.225 13.8 15.225 12 13.8 8.775 12 8.775Zm4.05-.075a.75.75 0 1 1-1.5 0 .75.75 0 0 1 1.5 0Z" fill="#6667AB"/><path fill-rule="evenodd" clip-rule="evenodd" d="M0 3.75A3.75 3.75 0 0 1 3.75 0h16.5A3.75 3.75 0 0 1 24 3.75v16.5A3.75 3.75 0 0 1 20.25 24H3.75A3.75 3.75 0 0 1 0 20.25V3.75Zm9.45 2.025h5.1c.675.075 1.125.15 1.5.3.45.225.75.375 1.125.75s.6.75.75 1.125c.15.375.3.825.3 1.5v5.1c-.075.675-.15 1.125-.3 1.5-.225.45-.375.75-.75 1.125s-.75.6-1.125.75c-.375.15-.825.3-1.5.3h-5.1c-.675-.075-1.125-.15-1.5-.3-.45-.225-.75-.375-1.125-.75s-.6-.75-.75-1.125c-.15-.375-.3-.825-.3-1.5v-5.1c.075-.675.15-1.125.3-1.5.225-.45.375-.75.75-1.125s.75-.6 1.125-.75c.375-.15.825-.3 1.5-.3Z" fill="#6667AB"/></svg><svg fill="none" viewBox="0 0 24 24" id="instagram-white" xmlns="http://www.w3.org/2000/svg"><path d="M12 14.1c-1.125 0-2.1-.9-2.1-2.1 0-1.125.9-2.1 2.1-2.1 1.125 0 2.1.9 2.1 2.1 0 1.125-.975 2.1-2.1 2.1Z" fill="#fff"/><path fill-rule="evenodd" clip-rule="evenodd" d="M14.55 6.9h-5.1c-.6.075-.9.15-1.125.225-.3.075-.525.225-.75.45-.178.178-.262.356-.364.571a8.718 8.718 0 0 1-.086.179l-.04.11c-.078.215-.185.508-.185 1.015v5.1c.075.6.15.9.225 1.125.075.3.225.525.45.75.178.178.356.262.571.364l.179.086.11.04c.215.078.508.185 1.015.185h5.1c.6-.075.9-.15 1.125-.225.3-.075.525-.225.75-.45.178-.178.262-.356.364-.571l.086-.179.04-.11c.078-.215.185-.508.185-1.015v-5.1c-.075-.6-.15-.9-.225-1.125-.075-.3-.225-.525-.45-.75-.178-.178-.356-.262-.571-.364a8.645 8.645 0 0 1-.179-.086 4.08 4.08 0 0 1-.11-.04c-.215-.078-.508-.185-1.015-.185ZM12 8.775A3.201 3.201 0 0 0 8.775 12c0 1.8 1.425 3.225 3.225 3.225S15.225 13.8 15.225 12 13.8 8.775 12 8.775Zm4.05-.075a.75.75 0 1 1-1.5 0 .75.75 0 0 1 1.5 0Z" fill="#fff"/><path fill-rule="evenodd" clip-rule="evenodd" d="M0 3.75A3.75 3.75 0 0 1 3.75 0h16.5A3.75 3.75 0 0 1 24 3.75v16.5A3.75 3.75 0 0 1 20.25 24H3.75A3.75 3.75 0 0 1 0 20.25V3.75Zm9.45 2.025h5.1c.675.075 1.125.15 1.5.3.45.225.75.375 1.125.75s.6.75.75 1.125c.15.375.3.825.3 1.5v5.1c-.075.675-.15 1.125-.3 1.5-.225.45-.375.75-.75 1.125s-.75.6-1.125.75c-.375.15-.825.3-1.5.3h-5.1c-.675-.075-1.125-.15-1.5-.3-.45-.225-.75-.375-1.125-.75s-.6-.75-.75-1.125c-.15-.375-.3-.825-.3-1.5v-5.1c.075-.675.15-1.125.3-1.5.225-.45.375-.75.75-1.125s.75-.6 1.125-.75c.375-.15.825-.3 1.5-.3Z" fill="#fff"/></svg><svg fill="none" viewBox="0 0 39 38" id="lightning" xmlns="http://www.w3.org/2000/svg"><g clip-path="url(#ata)"><path d="M21.073 14.185h12.583L17.928 37.777V23.622H6.918L21.073.03v14.155Zm-3.145 3.146v-5.946l-5.455 9.091h8.6v6.911l6.705-10.056h-9.85Z" fill="#6667AB"/></g><defs><clipPath id="ata"><path fill="#fff" transform="translate(.5)" d="M0 0h38v38H0z"/></clipPath></defs></svg><svg fill="none" viewBox="0 0 20 20" id="link-icon" xmlns="http://www.w3.org/2000/svg"><path d="M9.98 13.26 6.1 17.14a2.471 2.471 0 0 1-3.5 0 2.46 2.46 0 0 1 0-3.5l3.88-3.88a1.004 1.004 0 0 0-1.42-1.42l-3.88 3.89a4.48 4.48 0 0 0 6.33 6.33l3.89-3.88a1.003 1.003 0 1 0-1.42-1.42Zm-3.28-.22a1 1 0 0 0 .71.29.999.999 0 0 0 .71-.29l4.92-4.92a1.004 1.004 0 1 0-1.42-1.42L6.7 11.62a1 1 0 0 0 0 1.42Zm12.17 2.83h-1v-1a1 1 0 1 0-2 0v1h-1a1 1 0 0 0 0 2h1v1a1 1 0 0 0 2 0v-1h1a1 1 0 1 0 0-2Zm-4.19-4.47 3.88-3.89a4.48 4.48 0 0 0-6.33-6.33L8.34 5.06a1.004 1.004 0 1 0 1.42 1.42l3.88-3.88a2.47 2.47 0 0 1 3.5 0 2.46 2.46 0 0 1 0 3.5l-3.88 3.88a1 1 0 0 0 .326 1.64.999.999 0 0 0 1.095-.22Z" fill="#6667AB"/></svg><svg fill="none" viewBox="0 0 20 20" id="location-point" xmlns="http://www.w3.org/2000/svg"><path d="M15 3.733a7.071 7.071 0 1 0-10 10l4.392 4.4a.833.833 0 0 0 1.183 0L15 13.692a7.041 7.041 0 0 0 0-9.959ZM13.808 12.5 10 16.325 6.192 12.5a5.383 5.383 0 1 1 7.616 0ZM7.5 6.175a3.6 3.6 0 0 0 0 5.083 3.592 3.592 0 0 0 6.133-2.5 3.535 3.535 0 0 0-1.05-2.541A3.583 3.583 0 0 0 7.5 6.175Zm3.908 3.9a1.942 1.942 0 1 1 .559-1.358 1.941 1.941 0 0 1-.6 1.358h.041Z" fill="#EBC277"/></svg><svg fill="none" viewBox="0 0 24 24" id="money-stack" xmlns="http://www.w3.org/2000/svg"><path d="M22 17H2a1 1 0 0 0 0 2h20a1 1 0 0 0 0-2Zm0 4H2a1 1 0 0 0 0 2h20a1 1 0 0 0 0-2ZM6 7a1 1 0 1 0 0 2 1 1 0 0 0 0-2Zm14-6H4a3 3 0 0 0-3 3v8a3 3 0 0 0 3 3h16a3 3 0 0 0 3-3V4a3 3 0 0 0-3-3Zm1 11a1 1 0 0 1-1 1H4a1 1 0 0 1-1-1V4a1 1 0 0 1 1-1h16a1 1 0 0 1 1 1v8Zm-9-7a3 3 0 1 0 0 6 3 3 0 0 0 0-6Zm0 4a1 1 0 1 1 0-2 1 1 0 0 1 0 2Zm6-2a1 1 0 1 0 0 2 1 1 0 0 0 0-2Z" fill="#6667AB"/></svg><svg fill="none" viewBox="0 0 17 17" id="phone" xmlns="http://www.w3.org/2000/svg"><path d="M8.367 16.328a7.616 7.616 0 0 0 3.07-.625 8.134 8.134 0 0 0 2.547-1.726 8.158 8.158 0 0 0 1.727-2.54 7.67 7.67 0 0 0 .625-3.078 7.616 7.616 0 0 0-.625-3.07 8.131 8.131 0 0 0-1.727-2.547 8.134 8.134 0 0 0-2.546-1.726A7.672 7.672 0 0 0 8.358.39a7.672 7.672 0 0 0-3.078.625 8.159 8.159 0 0 0-2.539 1.726A8.199 8.199 0 0 0 1.023 5.29a7.616 7.616 0 0 0-.625 3.07c0 1.089.209 2.115.625 3.079a8.16 8.16 0 0 0 1.727 2.539 8.159 8.159 0 0 0 2.54 1.726c.963.417 1.989.625 3.077.625Zm0-1.328a6.495 6.495 0 0 1-2.586-.516 6.76 6.76 0 0 1-2.117-1.421 6.76 6.76 0 0 1-1.422-2.118 6.581 6.581 0 0 1-.508-2.586c0-.921.17-1.783.508-2.586a6.76 6.76 0 0 1 1.422-2.117 6.498 6.498 0 0 1 2.11-1.422 6.494 6.494 0 0 1 2.585-.515c.922 0 1.784.172 2.586.515a6.476 6.476 0 0 1 2.117 1.422 6.695 6.695 0 0 1 1.43 2.117c.344.803.516 1.665.516 2.586 0 .922-.172 1.784-.516 2.586a6.588 6.588 0 0 1-1.422 2.117 6.76 6.76 0 0 1-2.117 1.422A6.495 6.495 0 0 1 8.367 15Zm-1.914-4.813a11.5 11.5 0 0 0 1.438 1.211c.5.35.997.615 1.492.797.495.177.963.242 1.406.196.448-.053.844-.25 1.188-.594l.07-.07.062-.079a1.14 1.14 0 0 0 .297-.656c.026-.24-.075-.445-.304-.617-.12-.088-.245-.18-.375-.273-.13-.094-.28-.196-.446-.305a418.98 418.98 0 0 0-.562-.399c-.23-.161-.427-.226-.594-.195-.167.026-.339.125-.516.297l-.304.313a.25.25 0 0 1-.172.062.404.404 0 0 1-.18-.055 4.42 4.42 0 0 1-.523-.375 7.382 7.382 0 0 1-.649-.593 9.342 9.342 0 0 1-.586-.641 4.081 4.081 0 0 1-.375-.524.507.507 0 0 1-.054-.164c-.01-.062.01-.12.062-.171l.313-.32c.177-.188.278-.363.304-.524.026-.162-.044-.357-.21-.586l-.962-1.367a.649.649 0 0 0-.367-.282.72.72 0 0 0-.453.024c-.161.057-.33.15-.508.281a.155.155 0 0 0-.054.047.31.31 0 0 1-.047.04c-.344.348-.542.744-.594 1.187-.047.442.018.911.195 1.406.183.495.448.992.797 1.492.354.5.758.98 1.211 1.438Z" fill="#29282D"/></svg><svg viewBox="0 0 18 14" id="photo" xmlns="http://www.w3.org/2000/svg"><path d="m16.43 10.776-4.026-3.773a1.672 1.672 0 0 0-.492-.308 1.423 1.423 0 0 0-1.06 0c-.168.064-.33.164-.485.301L7.284 9.751 6.026 8.616a1.58 1.58 0 0 0-.45-.28 1.159 1.159 0 0 0-.472-.103 1.1 1.1 0 0 0-.458.096c-.137.06-.276.153-.417.28l-2.537 2.243c.01.651.192 1.148.547 1.49.356.346.866.52 1.532.52h10.418c.806 0 1.4-.18 1.784-.54.387-.356.54-.871.458-1.546Zm-9.932-3.48c.305 0 .586-.074.84-.225.256-.15.459-.353.61-.608.154-.26.232-.545.232-.855a1.59 1.59 0 0 0-.233-.84 1.676 1.676 0 0 0-.608-.616 1.59 1.59 0 0 0-.841-.232c-.31 0-.595.077-.854.232a1.73 1.73 0 0 0-.616.616c-.15.255-.225.535-.225.84 0 .31.075.595.225.855.155.255.36.458.616.608.26.15.544.226.854.226Zm-3.247 6.31h11.491c.784 0 1.381-.207 1.791-.622.415-.41.622-1.002.622-1.777V2.936c0-.775-.207-1.368-.622-1.778-.41-.415-1.007-.622-1.79-.622H3.25c-.78 0-1.376.205-1.791.615-.415.41-.622 1.005-.622 1.785v8.271c0 .775.207 1.367.622 1.777.415.415 1.012.622 1.791.622Zm.191-1.763c-.273 0-.483-.069-.629-.205-.14-.142-.211-.358-.211-.65v-7.84c0-.292.07-.506.211-.643.146-.137.356-.205.63-.205H14.55c.273 0 .48.068.622.205.146.137.219.35.219.642v7.841c0 .292-.073.508-.22.65-.14.136-.348.205-.621.205H3.442Z"/></svg><svg viewBox="0 0 17 14" id="photo-360" xmlns="http://www.w3.org/2000/svg"><path d="M2.751 13.606h5.195v-1.763H2.942c-.273 0-.483-.069-.629-.205-.14-.142-.211-.358-.211-.65V7.625H.338v3.582c0 .775.207 1.367.622 1.777.415.415 1.012.622 1.791.622Zm6.31 0h5.181c.784 0 1.381-.207 1.791-.622.415-.41.622-1.002.622-1.777V7.625h-1.763v3.363c0 .292-.073.508-.22.65-.14.136-.348.205-.621.205H9.06v1.763Zm5.83-7.088h1.764V2.936c0-.775-.207-1.368-.622-1.778-.41-.415-1.007-.622-1.79-.622H9.06V2.3h4.99c.273 0 .48.068.622.205.146.137.219.35.219.642v3.37Zm-14.553 0h1.764v-3.37c0-.292.07-.506.211-.643.146-.137.356-.205.63-.205h5.003V.536H2.751c-.78 0-1.376.205-1.791.615-.415.41-.622 1.005-.622 1.785v3.582ZM8.52 10.68c.487 0 .947-.094 1.38-.28.438-.192.82-.454 1.149-.787.332-.332.592-.718.78-1.155.19-.438.286-.905.286-1.401 0-.493-.095-.955-.287-1.388a3.58 3.58 0 0 0-.78-1.142 3.56 3.56 0 0 0-1.148-.779 3.377 3.377 0 0 0-1.38-.287c-.502 0-.971.096-1.409.287a3.744 3.744 0 0 0-1.941 1.92c-.187.434-.28.896-.28 1.389 0 .496.093.963.28 1.401A3.736 3.736 0 0 0 7.112 10.4c.438.187.907.28 1.409.28Zm0-1.1a2.44 2.44 0 0 1-1.272-.343 2.594 2.594 0 0 1-.916-.916 2.427 2.427 0 0 1-.342-1.264c0-.456.114-.87.342-1.245a2.67 2.67 0 0 1 .923-.909 2.427 2.427 0 0 1 1.265-.341c.45 0 .865.113 1.244.341.383.228.685.531.909.91.228.373.342.788.342 1.244 0 .46-.114.881-.342 1.264a2.63 2.63 0 0 1-.903.916 2.378 2.378 0 0 1-1.25.342Zm-.007-.814c.305 0 .585-.076.84-.226.26-.155.465-.36.616-.615a1.65 1.65 0 0 0 .232-.862c0-.31-.077-.592-.232-.847a1.676 1.676 0 0 0-.616-.609 1.59 1.59 0 0 0-.84-.232 1.65 1.65 0 0 0-.862.232c-.255.15-.46.354-.615.609a1.602 1.602 0 0 0-.232.847c0 .315.077.602.232.862.155.255.36.46.615.615.26.15.547.226.862.226Z"/></svg><svg fill="none" viewBox="0 0 25 31" id="plus" xmlns="http://www.w3.org/2000/svg"><g clip-path="url(#baa)"><path d="M10.793 14.008V3.762h3.415v10.246h10.246v3.415H14.208v10.246h-3.415V17.423H.547v-3.415h10.246Z" fill="#fff"/></g><defs><clipPath id="baa"><path fill="#fff" transform="translate(0 .563)" d="M0 0h25v30H0z"/></clipPath></defs></svg><svg fill="none" viewBox="0 0 21 22" id="price-ticket" xmlns="http://www.w3.org/2000/svg"><path d="m9.494.91 9.908 1.416 1.415 9.91-9.2 9.2a1 1 0 0 1-1.415 0l-9.909-9.91a1.001 1.001 0 0 1 0-1.415l9.201-9.2Zm.708 2.124-7.786 7.785 8.493 8.492 7.785-7.784-1.06-7.432-7.432-1.061Zm2.122 6.37a2.002 2.002 0 1 1 2.831-2.832 2.002 2.002 0 0 1-2.831 2.832Z" fill="#333"/></svg><svg fill="none" viewBox="0 0 17 17" id="profile" xmlns="http://www.w3.org/2000/svg"><path d="M8.367 16.328a7.616 7.616 0 0 0 3.07-.625 8.134 8.134 0 0 0 2.547-1.726 8.158 8.158 0 0 0 1.727-2.54 7.67 7.67 0 0 0 .625-3.078 7.616 7.616 0 0 0-.625-3.07 8.131 8.131 0 0 0-1.727-2.547 8.134 8.134 0 0 0-2.546-1.726A7.672 7.672 0 0 0 8.358.39a7.672 7.672 0 0 0-3.078.625 8.159 8.159 0 0 0-2.539 1.726A8.199 8.199 0 0 0 1.023 5.29a7.616 7.616 0 0 0-.625 3.07c0 1.089.209 2.115.625 3.079a8.16 8.16 0 0 0 1.727 2.539 8.159 8.159 0 0 0 2.54 1.726c.963.417 1.989.625 3.077.625Zm0-1.328a6.495 6.495 0 0 1-2.586-.516 6.76 6.76 0 0 1-2.117-1.421 6.76 6.76 0 0 1-1.422-2.118 6.581 6.581 0 0 1-.508-2.586c0-.921.17-1.783.508-2.586a6.76 6.76 0 0 1 1.422-2.117 6.498 6.498 0 0 1 2.11-1.422 6.494 6.494 0 0 1 2.585-.515c.922 0 1.784.172 2.586.515a6.476 6.476 0 0 1 2.117 1.422 6.695 6.695 0 0 1 1.43 2.117c.344.803.516 1.665.516 2.586 0 .922-.172 1.784-.516 2.586a6.588 6.588 0 0 1-1.422 2.117 6.76 6.76 0 0 1-2.117 1.422A6.495 6.495 0 0 1 8.367 15ZM4.79 12.312h7.14c.157 0 .271-.044.344-.132a.542.542 0 0 0 .118-.36c0-.213-.084-.49-.25-.828a3.758 3.758 0 0 0-.743-1.023 4.072 4.072 0 0 0-1.25-.867c-.505-.235-1.101-.352-1.789-.352-.687 0-1.283.117-1.789.352a4.176 4.176 0 0 0-1.258.867c-.328.338-.575.68-.742 1.023-.161.339-.242.615-.242.828 0 .146.037.266.11.36.078.088.195.133.351.133ZM8.36 8.11c.37.006.706-.088 1.008-.28.307-.194.55-.454.727-.782.182-.333.273-.708.273-1.125 0-.39-.091-.748-.273-1.07a2.058 2.058 0 0 0-.727-.782 1.8 1.8 0 0 0-1.008-.297c-.37 0-.708.1-1.015.297a2.142 2.142 0 0 0-.727.782c-.177.322-.265.68-.265 1.07 0 .417.088.789.265 1.117.182.328.425.589.727.781.307.193.646.29 1.015.29Z" fill="#29282D"/></svg><svg fill="none" viewBox="0 0 20 20" id="pump" xmlns="http://www.w3.org/2000/svg"><path d="m17.117 5.242-1.284-1.284-1.175-1.175a.837.837 0 1 0-1.183 1.183l.833.834-.691 2.075a2.5 2.5 0 0 0 .608 2.558l2.458 2.5v3.9a.833.833 0 0 1-1.666 0v-1.667a2.5 2.5 0 0 0-2.5-2.5h-.85v-7.5a2.5 2.5 0 0 0-2.5-2.5h-5a2.5 2.5 0 0 0-2.5 2.5v11.667a2.5 2.5 0 0 0 2.5 2.5h5a2.5 2.5 0 0 0 2.5-2.5v-2.5h.833a.833.833 0 0 1 .833.833v1.667a2.5 2.5 0 0 0 5 0V8.191a4.167 4.167 0 0 0-1.216-2.95ZM10 15.832a.833.833 0 0 1-.833.833h-5a.833.833 0 0 1-.834-.833V10H10v5.833Zm0-7.5H3.333V4.166a.833.833 0 0 1 .834-.833h5a.833.833 0 0 1 .833.833v4.167Zm6.667 1.184-1.284-1.284a.833.833 0 0 1-.2-.833l.425-1.284.325.334a2.5 2.5 0 0 1 .734 1.741v1.325Z" fill="#EBC277"/></svg><svg fill="none" viewBox="0 0 10 10" id="radio-check" xmlns="http://www.w3.org/2000/svg"><g clip-path="url(#bea)"><path fill-rule="evenodd" clip-rule="evenodd" d="M1.915 4.754.501 6.17l1.363 1.363 1.414 1.415v-.001h.001l1.414-1.413v-.001l4.363-4.363-1.414-1.415-4.364 4.364-1.363-1.364Z" fill="#fff"/></g><defs><clipPath id="bea"><path fill="#fff" transform="translate(.5 .39)" d="M0 0h9v9H0z"/></clipPath></defs></svg><svg viewBox="0 0 24 24" id="search" xmlns="http://www.w3.org/2000/svg"><path d="M9.92 2.044c-1.361.155-2.794.69-3.979 1.486-2.116 1.422-3.54 3.723-3.887 6.28-.086.637-.086 1.694.001 2.34a9.014 9.014 0 0 0 6.64 7.529 8.975 8.975 0 0 0 7.544-1.404l.38-.275 1.92 1.918c1.318 1.316 1.968 1.938 2.07 1.98.185.077.59.08.768.006.378-.158.653-.609.608-.999-.045-.392-.096-.45-2.089-2.415l-1.897-1.87.262-.36a8.988 8.988 0 0 0 1.416-7.573c-.565-2.141-1.872-3.96-3.75-5.22-.484-.324-1.534-.834-2.114-1.025a10.626 10.626 0 0 0-1.812-.4c-.394-.049-1.644-.047-2.081.002m2.2 2.051a7.004 7.004 0 0 1 4.834 3.235 7.004 7.004 0 0 1 0 7.341 7.01 7.01 0 0 1-6.848 3.269 7.022 7.022 0 0 1-4.536-2.532A6.998 6.998 0 0 1 7.888 4.736c.768-.387 1.479-.585 2.552-.712.264-.032 1.34.014 1.68.071"/></svg><svg fill="none" viewBox="0 0 23 26" id="security" xmlns="http://www.w3.org/2000/svg"><path d="M21.769 4.991a1.084 1.084 0 0 0-.785-.37c-2.317-.06-5.25-2.538-7.188-3.51-1.198-.6-1.988-.994-2.582-1.098a1.237 1.237 0 0 0-.364 0c-.593.105-1.384.5-2.58 1.099-1.94.97-4.872 3.449-7.189 3.51a1.09 1.09 0 0 0-.786.369c-.204.231-.31.534-.293.842.497 10.12 4.128 16.385 10.497 20.025.166.093.35.142.532.142.183 0 .367-.049.533-.142 6.37-3.64 9.999-9.904 10.498-20.025a1.173 1.173 0 0 0-.293-.842Zm-5.065 3.98-5.375 7.932c-.193.285-.496.474-.796.474-.3 0-.635-.165-.846-.376L5.9 13.211a.662.662 0 0 1 0-.935l.936-.938a.664.664 0 0 1 .935 0l2.463 2.464 4.28-6.318a.664.664 0 0 1 .92-.175l1.095.744a.664.664 0 0 1 .176.918Z" fill="#6667AB"/></svg><svg fill="none" viewBox="0 0 18 18" id="star" xmlns="http://www.w3.org/2000/svg"><path d="M3.922 16.953a.643.643 0 0 0 .547.125c.203-.036.424-.14.664-.312l4.133-3.04 4.14 3.04c.24.172.461.276.664.312.203.042.386 0 .547-.125a.715.715 0 0 0 .29-.484c.036-.203.005-.446-.095-.727l-1.632-4.86 4.172-3c.244-.171.414-.348.507-.53a.707.707 0 0 0 .047-.563.714.714 0 0 0-.367-.422c-.182-.094-.424-.138-.727-.133l-5.117.032-1.554-4.883c-.094-.287-.214-.503-.36-.649a.689.689 0 0 0-.515-.218.705.705 0 0 0-.516.218c-.14.146-.258.362-.352.649L6.844 6.266l-5.117-.032c-.303-.005-.545.04-.727.133a.715.715 0 0 0-.367.422.708.708 0 0 0 .047.563c.093.182.263.359.507.53l4.172 3-1.632 4.86c-.1.281-.133.524-.102.727a.745.745 0 0 0 .297.484Zm1.125-1.547c-.01-.01-.01-.034 0-.07l1.555-4.469a.694.694 0 0 0 .046-.281.438.438 0 0 0-.07-.242.705.705 0 0 0-.203-.211l-3.89-2.688c-.037-.02-.05-.041-.04-.062.006-.016.029-.024.07-.024l4.727.086a.677.677 0 0 0 .399-.093A.621.621 0 0 0 7.867 7l1.36-4.523c.01-.042.023-.063.039-.063.02 0 .036.02.046.063L10.672 7a.622.622 0 0 0 .226.352.677.677 0 0 0 .399.093l4.726-.086c.042 0 .066.008.07.024.011.02-.002.041-.038.062l-3.89 2.688a.705.705 0 0 0-.204.21.494.494 0 0 0-.078.243c0 .088.018.182.055.281l1.554 4.469c.005.036.005.06 0 .07-.01.016-.034.01-.07-.015l-3.758-2.868a.632.632 0 0 0-.398-.148.622.622 0 0 0-.391.148l-3.758 2.868c-.036.026-.06.03-.07.015Z" fill="#29282D"/></svg><svg fill="none" viewBox="0 0 20 20" id="tachometer-fast-alt" xmlns="http://www.w3.org/2000/svg"><path d="M10 4.167a8.333 8.333 0 0 0-7.217 12.5.836.836 0 1 0 1.45-.834 6.6 6.6 0 0 1-.9-3.333 6.667 6.667 0 1 1 12.442 3.333.833.833 0 1 0 1.442.833A8.333 8.333 0 0 0 10 4.166Zm2.367 4.8-1.292 1.283A2.425 2.425 0 0 0 10 10a2.5 2.5 0 1 0 2.5 2.5c0-.37-.086-.735-.25-1.067l1.292-1.283a.832.832 0 0 0-.588-1.426.833.833 0 0 0-.587.242ZM10 13.332a.833.833 0 0 1 0-1.667.833.833 0 0 1 .583.234.834.834 0 0 1 .25.6.833.833 0 0 1-.833.833Z" fill="#EBC277"/></svg><svg fill="none" viewBox="0 0 24 24" id="telegram" xmlns="http://www.w3.org/2000/svg"><path fill-rule="evenodd" clip-rule="evenodd" d="M3.75 0h16.5A3.75 3.75 0 0 1 24 3.75v16.5A3.75 3.75 0 0 1 20.25 24H3.75A3.75 3.75 0 0 1 0 20.25V3.75A3.75 3.75 0 0 1 3.75 0Zm8.769 9.006a526.069 526.069 0 0 0-6.444 2.775c-.523.208-.797.412-.822.61-.042.337.379.47.952.65l.242.077c.564.183 1.323.397 1.718.406.358.008.757-.14 1.198-.443 3.01-2.031 4.563-3.058 4.66-3.08.07-.016.165-.035.23.022.064.057.058.166.05.195-.04.178-1.694 1.715-2.55 2.51-.266.248-.455.424-.494.464-.086.09-.175.175-.26.257-.524.505-.917.884.022 1.503.451.297.813.543 1.173.789.393.267.785.535 1.293.867.13.085.253.173.373.26.458.325.87.619 1.378.572.295-.027.6-.305.755-1.133.366-1.957 1.085-6.197 1.252-7.944a1.954 1.954 0 0 0-.019-.435.465.465 0 0 0-.157-.3c-.133-.107-.337-.13-.428-.128-.416.007-1.053.23-4.122 1.506Z" fill="#6667AB"/></svg><svg fill="none" viewBox="0 0 24 24" id="telegram-white" xmlns="http://www.w3.org/2000/svg"><path fill-rule="evenodd" clip-rule="evenodd" d="M3.75 0h16.5A3.75 3.75 0 0 1 24 3.75v16.5A3.75 3.75 0 0 1 20.25 24H3.75A3.75 3.75 0 0 1 0 20.25V3.75A3.75 3.75 0 0 1 3.75 0Zm8.769 9.006a526.069 526.069 0 0 0-6.444 2.775c-.523.208-.797.412-.822.61-.042.337.379.47.952.65l.242.077c.564.183 1.323.397 1.718.406.358.008.757-.14 1.198-.443 3.01-2.031 4.563-3.058 4.66-3.08.07-.016.165-.035.23.022.064.057.058.166.05.195-.04.178-1.694 1.715-2.55 2.51-.266.248-.455.424-.494.464-.086.09-.175.175-.26.257-.524.505-.917.884.022 1.503.451.297.813.543 1.173.789.393.267.785.535 1.293.867.13.085.253.173.373.26.458.325.87.619 1.378.572.295-.027.6-.305.755-1.133.366-1.957 1.085-6.197 1.252-7.944a1.954 1.954 0 0 0-.019-.435.465.465 0 0 0-.157-.3c-.133-.107-.337-.13-.428-.128-.416.007-1.053.23-4.122 1.506Z" fill="#fff"/></svg><svg fill="none" viewBox="0 0 26 26" id="time" xmlns="http://www.w3.org/2000/svg"><path d="M13 23.4c5.72 0 10.4-4.68 10.4-10.4 0-5.72-4.68-10.4-10.4-10.4C7.28 2.6 2.6 7.28 2.6 13c0 5.72 4.68 10.4 10.4 10.4ZM13 0c7.15 0 13 5.85 13 13s-5.85 13-13 13S0 20.15 0 13 5.85 0 13 0Zm6.5 12.35v1.95h-7.8V6.5h1.95v5.85h5.85Z" fill="#6667AB"/></svg><svg fill="none" viewBox="0 0 20 20" id="transmission" xmlns="http://www.w3.org/2000/svg"><path fill-rule="evenodd" clip-rule="evenodd" d="M10 18.333a8.333 8.333 0 1 0 0-16.666 8.333 8.333 0 0 0 0 16.666Zm0-1.666a6.667 6.667 0 1 0 0-13.334 6.667 6.667 0 0 0 0 13.333Z" fill="#EBC277"/><path d="M5.833 7.5a.833.833 0 0 1 1.667 0v5a.833.833 0 1 1-1.667 0v-5ZM9.167 7.5a.833.833 0 1 1 1.666 0v5a.833.833 0 1 1-1.666 0v-5ZM12.5 7.5a.833.833 0 0 1 1.667 0v2.916a.833.833 0 0 1-1.667 0V7.5Z" fill="#EBC277"/><path d="M6.667 11.25a.833.833 0 1 1 0-1.667h6.666a.833.833 0 0 1 0 1.667H6.667Z" fill="#EBC277"/></svg><svg fill="none" viewBox="0 0 24 24" id="truck" xmlns="http://www.w3.org/2000/svg"><path d="M18.5 21a2.5 2.5 0 1 0 0-5 2.5 2.5 0 0 0 0 5ZM5.5 21a2.5 2.5 0 1 0 0-5 2.5 2.5 0 0 0 0 5ZM16 8h4l3 3v5h-7V8ZM16 3H1v13h15V3Z" stroke="#6667AB" stroke-width="2" stroke-linecap="round" stroke-linejoin="round"/></svg><svg fill="none" viewBox="0 0 26 26" id="trust" xmlns="http://www.w3.org/2000/svg"><path d="M18.967 7.254 10.4 15.821l-4.667-4.654L3.9 13l6.5 6.5L20.8 9.1l-1.833-1.846ZM13 0C5.824 0 0 5.824 0 13s5.824 13 13 13 13-5.824 13-13S20.176 0 13 0Zm0 23.4C7.254 23.4 2.6 18.746 2.6 13S7.254 2.6 13 2.6 23.4 7.254 23.4 13 18.746 23.4 13 23.4Z" fill="#6667AB"/></svg><svg viewBox="0 0 24 24" id="user-check" xmlns="http://www.w3.org/2000/svg"><path d="M16 21v-2a4 4 0 0 0-4-4H5a4 4 0 0 0-4 4v2M17 11l2 2 4-4M8.5 11a4 4 0 1 0 0-8 4 4 0 0 0 0 8Z" stroke-width="2" stroke-linecap="round" stroke-linejoin="round"/></svg><svg fill="none" viewBox="0 0 27 29" id="viber" xmlns="http://www.w3.org/2000/svg"><path d="M8.42 6.294c-.247-.036-.5.014-.715.141h-.018c-.5.293-.95.662-1.334 1.097-.32.369-.493.742-.538 1.102-.027.213-.008.429.054.633l.024.013c.36 1.056.829 2.073 1.402 3.03A17.825 17.825 0 0 0 10 16.007l.032.046.05.037.031.036.037.032a18.071 18.071 0 0 0 3.707 2.718c1.54.838 2.473 1.234 3.034 1.4v.007c.164.051.314.074.464.074.478-.036.93-.23 1.285-.552.433-.384.799-.835 1.084-1.338v-.01c.268-.506.177-.983-.209-1.306a16.159 16.159 0 0 0-2.506-1.8c-.597-.323-1.204-.127-1.449.2l-.524.662c-.269.328-.756.282-.756.282l-.014.008c-3.639-.929-4.61-4.613-4.61-4.613s-.045-.5.292-.757l.655-.527c.315-.256.533-.861.196-1.458a15.736 15.736 0 0 0-1.795-2.505.997.997 0 0 0-.586-.35h.003Zm6.15-1.602a.666.666 0 1 0 0 1.333c1.684 0 3.084.55 4.19 1.605a5.903 5.903 0 0 1 1.304 2.01c.292.75.425 1.55.39 2.353a.666.666 0 1 0 1.333.056 7.139 7.139 0 0 0-.481-2.892 7.25 7.25 0 0 0-1.605-2.47l-.013-.013c-1.374-1.313-3.111-1.982-5.118-1.982Z" fill="#6667AB"/><path d="M14.522 6.883a.666.666 0 1 0 0 1.332h.022c1.216.087 2.1.492 2.72 1.157.636.685.965 1.536.94 2.589a.666.666 0 1 0 1.332.03c.032-1.381-.413-2.574-1.295-3.525v-.003c-.902-.967-2.14-1.479-3.63-1.579l-.023-.003-.066.002Z" fill="#6667AB"/><path d="M14.498 9.114a.666.666 0 1 0-.07 1.33c.558.03.914.197 1.137.423.226.226.394.59.424 1.159a.667.667 0 1 0 1.33-.07c-.043-.8-.293-1.506-.806-2.026-.516-.52-1.218-.773-2.015-.816Z" fill="#6667AB"/><path fill-rule="evenodd" clip-rule="evenodd" d="M7.223 1.206a29.514 29.514 0 0 1 12.877 0l.452.1A6.869 6.869 0 0 1 25.71 6.32a26.272 26.272 0 0 1 0 12.925 6.868 6.868 0 0 1-5.16 5.014l-.452.1c-2.656.594-5.38.818-8.098.665l-3.535 3.164a1 1 0 0 1-1.652-.58l-.585-3.494a6.868 6.868 0 0 1-4.617-4.869 26.272 26.272 0 0 1 0-12.925 6.869 6.869 0 0 1 5.16-5.014l.45-.1Zm12.441 1.95a27.516 27.516 0 0 0-12.005 0l-.453.101a4.87 4.87 0 0 0-3.657 3.555 24.274 24.274 0 0 0 0 11.942 4.87 4.87 0 0 0 3.658 3.555l.12.026a.999.999 0 0 1 .767.81l.392 2.343 2.494-2.232a1 1 0 0 1 .737-.253 27.52 27.52 0 0 0 7.947-.593l.452-.101a4.87 4.87 0 0 0 3.657-3.555 24.28 24.28 0 0 0 0-11.942 4.87 4.87 0 0 0-3.657-3.555l-.452-.101Z" fill="#6667AB"/></svg></svg>